<?xml version="1.0" encoding="UTF-8" standalone="no"?>
<!-- Generator: Adobe Illustrator 15.0.2, SVG Export Plug-In . SVG Version: 6.00 Build 0)  -->

<svg
   xmlns:dc="http://purl.org/dc/elements/1.1/"
   xmlns:cc="http://creativecommons.org/ns#"
   xmlns:rdf="http://www.w3.org/1999/02/22-rdf-syntax-ns#"
   xmlns:svg="http://www.w3.org/2000/svg"
   xmlns="http://www.w3.org/2000/svg"
   xmlns:sodipodi="http://sodipodi.sourceforge.net/DTD/sodipodi-0.dtd"
   xmlns:inkscape="http://www.inkscape.org/namespaces/inkscape"
   version="1.1"
   id="Capa_1"
   x="0px"
   y="0px"
   width="128"
   height="128"
   viewBox="0 0 127.99999 128"
   enable-background="new 0 0 628.254 613.516"
   xml:space="preserve"
   inkscape:version="0.48.3.1 r9886"
   sodipodi:docname="logo.svg"
   inkscape:export-filename="/home/langpavel/Projects/node/changejob/public/images/logo128.png"
   inkscape:export-xdpi="90"
   inkscape:export-ydpi="90"><metadata
   id="metadata3055"><rdf:RDF><cc:Work
       rdf:about=""><dc:format>image/svg+xml</dc:format><dc:type
         rdf:resource="http://purl.org/dc/dcmitype/StillImage" /><dc:title></dc:title></cc:Work></rdf:RDF></metadata><defs
   id="defs3053">
	

		
	
			
		
				
			</defs><sodipodi:namedview
   pagecolor="#ffffff"
   bordercolor="#666666"
   borderopacity="1"
   objecttolerance="10"
   gridtolerance="10"
   guidetolerance="10"
   inkscape:pageopacity="0"
   inkscape:pageshadow="2"
   inkscape:window-width="1366"
   inkscape:window-height="695"
   id="namedview3051"
   showgrid="false"
   inkscape:zoom="3.9453125"
   inkscape:cx="74.645545"
   inkscape:cy="62.640519"
   inkscape:window-x="0"
   inkscape:window-y="26"
   inkscape:window-maximized="1"
   inkscape:current-layer="Capa_1"
   showguides="true"
   inkscape:guide-bbox="true" />
<rect
   style="fill:#000000;fill-opacity:0.12444445;stroke:#000000;stroke-width:0;stroke-linejoin:miter;stroke-miterlimit:24.10000038000000089;stroke-opacity:0.46666667000000001;stroke-dasharray:none"
   id="rect3999"
   width="128"
   height="128"
   x="-4.9999999e-06"
   y="8.437695e-15"
   ry="40.554455" /><path
   d="m 22.81947,90.900607 c -1.294374,2.324619 -2.32462,5.822274 -2.32462,8.026132 0,0.511644 0,1.162401 0.126752,2.065141 L 4.4441361,73.169659 c -0.517828,-0.90272 -0.903494,-2.197867 -0.903494,-3.364717 0,-1.168397 0.385666,-2.588753 0.903494,-3.493016 L 12.21058,52.723209 3.5406421,47.809647 31.753729,47.287377 45.469199,72.002811 36.672511,66.956504 22.81947,90.900607 z"
   id="path3077"
   style="fill:#52aa56;fill-opacity:1;stroke:#000000;stroke-width:0.80391306;stroke-linejoin:miter;stroke-miterlimit:24.10000038;stroke-opacity:0.46666667;stroke-dasharray:none"
   inkscape:connector-curvature="0" /><path
   d="m 35.245973,12.480875 c 2.456782,-4.2749734 6.472069,-6.6042286 11.38563,-6.6042286 5.309664,0 9.451895,2.4619979 12.42631,7.5023116 L 63.458868,20.754521 48.1847,47.160622 23.469265,32.794393 35.245973,12.480875 z"
   id="path3075"
   style="fill:#473b04;fill-opacity:1;stroke:#000000;stroke-width:0.80391306;stroke-linejoin:miter;stroke-miterlimit:24.10000038;stroke-opacity:0.46666667;stroke-dasharray:none"
   inkscape:connector-curvature="0" /><path
   d="m 37.052765,113.28681 c -7.375561,0 -13.456747,-6.08197 -13.456747,-13.457354 0,-2.071115 0.908711,-5.568575 2.203086,-7.766443 l 4.136821,-7.375561 H 60.611009 V 113.287 H 37.052765 z"
   id="path3073"
   style="fill:#102211;fill-opacity:1;stroke:#000000;stroke-width:0.80391306;stroke-linejoin:miter;stroke-miterlimit:24.10000038;stroke-opacity:0.46666667;stroke-dasharray:none"
   inkscape:connector-curvature="0" /><path
   d="M 61.646857,11.698917 C 59.707711,8.3386443 57.11896,6.0033974 54.01238,4.7082493 h 31.832083 c 2.847665,0 5.045534,1.1683971 6.345318,3.370709 L 100.08315,21.536287 108.6217,16.485341 94.900065,41.07847 66.824358,40.68295 75.494295,35.769387 61.646857,11.698917 z"
   id="path3071"
   style="fill:#f3c91b;fill-opacity:1;stroke:#000000;stroke-width:0.80391306;stroke-linejoin:miter;stroke-miterlimit:24.10000038;stroke-opacity:0.46666667;stroke-dasharray:none"
   inkscape:connector-curvature="0" /><path
   d="m 110.69803,84.946947 c 3.87791,0 7.11667,-1.035464 9.83235,-3.102136 L 104.47967,109.7936 c -1.29439,2.19787 -3.619,3.49301 -6.335455,3.49301 H 82.9968 v 9.96432 L 68.504593,99.053295 82.9968,74.849506 v 10.097247 h 27.70123 z"
   id="path3069"
   style="fill:#e83a33;fill-opacity:1;stroke:#000000;stroke-width:0.80391306;stroke-linejoin:miter;stroke-miterlimit:24.10000038;stroke-opacity:0.46666667;stroke-dasharray:none"
   inkscape:connector-curvature="0" /><path
   d="m 123.11391,61.65206 c 1.16762,2.071115 1.81742,4.268983 1.81742,6.599594 0,4.659865 -2.97983,9.577871 -7.11663,11.902686 -1.94419,1.041644 -4.6653,1.690665 -7.37558,1.690665 h -8.5484 L 86.626421,55.438906 111.34261,41.332362 123.11391,61.65206 z"
   id="path3049"
   style="fill:#540a09;fill-opacity:1;stroke:#000000;stroke-width:0.80391306;stroke-linejoin:miter;stroke-miterlimit:24.10000038;stroke-opacity:0.46666667;stroke-dasharray:none"
   inkscape:connector-curvature="0" />
</svg>